<svg width="429" height="96" viewBox="0 0 429 96" fill="none" xmlns="http://www.w3.org/2000/svg">
<path d="M107.132 37.2539C107.132 16.7695 90.5695 0.163574 70.1383 0.163574C55.5293 0.163574 42.8999 8.65535 36.8867 20.9828C36.922 20.9828 36.9572 20.981 36.9925 20.981C40.9332 20.981 44.7311 21.5986 48.2934 22.7426C48.3639 22.7649 48.4344 22.7909 48.5049 22.8151C52.8131 15.4711 60.6612 11.2633 70.4148 11.2633C85.176 11.2633 95.5919 21.0703 95.5919 36.5061C95.5919 37.959 95.501 39.5029 95.321 41.0469H60.2734C60.817 47.6747 64.8914 50.7627 69.873 50.7627C74.2201 50.7627 76.6655 48.5825 77.9327 45.8592H94.4156C92.1836 54.8904 84.5229 62.0298 73.6357 63.2111C73.6357 63.2185 73.6338 63.2241 73.6338 63.2315C73.6338 63.2334 73.6338 63.2371 73.632 63.239C73.5949 63.5012 73.5559 63.7635 73.5132 64.024C73.4984 64.1114 73.4835 64.1988 73.4687 64.2881C73.439 64.463 73.4093 64.6397 73.3778 64.8145C73.3592 64.9168 73.3388 65.0192 73.3203 65.1215C73.2887 65.2814 73.259 65.4414 73.2256 65.5995C73.2034 65.7074 73.1811 65.8135 73.1588 65.9195C73.1255 66.0739 73.092 66.2264 73.0568 66.3808C73.0327 66.4887 73.0067 66.5966 72.9826 66.7026C72.9455 66.857 72.9084 67.0114 72.8694 67.164C72.8434 67.2681 72.8175 67.3704 72.7915 67.4746C72.7488 67.6383 72.7043 67.8039 72.6579 67.9676C72.6338 68.0587 72.6097 68.148 72.5837 68.2392C72.5132 68.4866 72.4408 68.734 72.3666 68.9795C72.3481 69.0409 72.3276 69.1004 72.3091 69.1618C72.2497 69.3497 72.1903 69.5376 72.1291 69.7236C72.0957 69.8259 72.0605 69.9282 72.0252 70.0305C71.977 70.1738 71.9269 70.3188 71.8768 70.4621C71.8378 70.5737 71.797 70.6834 71.7562 70.7932C71.708 70.9271 71.6579 71.0611 71.6078 71.1931C71.5651 71.3066 71.5224 71.4201 71.4779 71.5317C71.4278 71.6619 71.3759 71.7903 71.3258 71.9186C71.2794 72.0321 71.2348 72.1456 71.1885 72.259C71.1347 72.3874 71.0808 72.5157 71.027 72.6422C70.9807 72.7538 70.9324 72.8636 70.8842 72.9752C70.8267 73.1091 70.7654 73.2412 70.7061 73.3733C70.6597 73.4756 70.6133 73.5798 70.5669 73.6821C70.4649 73.9034 70.3591 74.1229 70.2534 74.3424C70.2515 74.3443 70.2515 74.3462 70.2497 74.3499C90.6288 74.2848 107.132 57.703 107.132 37.2539Z" fill="#0E1F87"/>
<path d="M70.2356 23.7043C65.1649 23.7043 61.2705 26.7923 60.3633 32.4212H79.7443C79.7443 26.8816 75.3972 23.7043 70.2356 23.7043Z" fill="#0E1F87"/>
<path d="M70.1342 74.3443C69.841 74.3443 69.5497 74.3406 69.2603 74.3332C69.1675 74.3313 69.0729 74.3276 68.9801 74.3239C68.7797 74.3183 68.5794 74.3109 68.379 74.3016C68.2732 74.296 68.1675 74.2904 68.0617 74.2848C67.8688 74.2737 67.6777 74.2625 67.4866 74.2476C67.3845 74.2402 67.2825 74.2327 67.1804 74.2253C66.9652 74.2086 66.75 74.1881 66.5348 74.1676C66.4624 74.1602 66.3882 74.1546 66.3158 74.1472C66.0301 74.1174 65.7462 74.0858 65.4624 74.0486C65.3956 74.0393 65.3288 74.03 65.262 74.0207C65.0449 73.9928 64.826 73.9611 64.6108 73.9295C64.5124 73.9146 64.4141 73.8979 64.3158 73.883C64.1284 73.8533 63.941 73.8216 63.7555 73.79C63.6534 73.7714 63.5514 73.7547 63.4493 73.7361C63.2582 73.7007 63.069 73.6635 62.8797 73.6263C62.7888 73.6077 62.6979 73.591 62.6088 73.5724C62.3528 73.5184 62.0968 73.4645 61.8426 73.4049C61.8222 73.3994 61.8018 73.3956 61.7814 73.3919C61.5068 73.3287 61.234 73.2617 60.9613 73.191C60.8759 73.1687 60.7925 73.1464 60.709 73.1241C60.5197 73.0738 60.3305 73.0236 60.1431 72.9697C60.0448 72.9418 59.9483 72.9139 59.8499 72.886C59.6718 72.8339 59.4937 72.7818 59.3175 72.7278C59.2228 72.6981 59.1282 72.6702 59.0336 72.6404C58.8369 72.579 58.6421 72.5139 58.4491 72.4507C58.3786 72.4265 58.3063 72.4042 58.2358 72.38C57.9723 72.2907 57.7107 72.1977 57.4491 72.1028C57.3953 72.0824 57.3415 72.0619 57.2877 72.0414C57.0799 71.9652 56.874 71.8852 56.668 71.8052C56.579 71.7698 56.4918 71.7345 56.4027 71.6992C56.2301 71.6303 56.0595 71.5596 55.8869 71.4889C55.7941 71.4499 55.7014 71.4108 55.6086 71.3718C55.4361 71.2973 55.2654 71.2229 55.0928 71.1467C55.0167 71.1132 54.9425 71.0797 54.8665 71.0462C52.3079 80.1612 45.0257 84.6814 36.6655 84.6814C26.1753 84.6814 18.0025 77.6518 18.0025 63.4455V32.5291H29.0066V63.5199C29.0066 69.5971 31.6449 73.1129 36.8584 73.1129C41.8438 73.1129 44.5915 69.8948 44.8216 64.2956C37.6358 57.5301 33.1459 47.9185 33.1459 37.2558C33.1459 31.4186 34.4928 25.8975 36.8881 20.9847C16.5052 21.0405 0 37.6242 0 58.0732C0 78.5577 16.5627 95.1636 36.9939 95.1636C51.6029 95.1636 64.236 86.6718 70.2473 74.3443C70.2102 74.3443 70.175 74.3462 70.1397 74.3462C70.1379 74.3462 70.136 74.3443 70.1342 74.3443Z" fill="#EA0029"/>
<path d="M63.7554 73.7937C63.6533 73.7751 63.5513 73.7583 63.4492 73.7397C63.5513 73.7565 63.6533 73.7751 63.7554 73.7937Z" fill="#EA0029"/>
<path d="M55.8838 71.4907C55.791 71.4517 55.6982 71.4126 55.6055 71.3735C55.6982 71.4107 55.791 71.4517 55.8838 71.4907Z" fill="#EA0029"/>
<path d="M67.4858 74.2494C67.3838 74.2419 67.2817 74.2345 67.1797 74.2271C67.2817 74.2345 67.3838 74.2419 67.4858 74.2494Z" fill="#EA0029"/>
<path d="M65.4621 74.0504C65.3953 74.0411 65.3285 74.0318 65.2617 74.0225C65.3285 74.0336 65.3953 74.0429 65.4621 74.0504Z" fill="#EA0029"/>
<path d="M61.8429 73.407C61.8224 73.4013 61.8018 73.3976 61.7812 73.3938C61.7999 73.3994 61.8224 73.4032 61.8429 73.407Z" fill="#EA0029"/>
<path d="M66.5353 74.1694C66.463 74.1619 66.3888 74.1564 66.3164 74.1489C66.3888 74.1564 66.463 74.1619 66.5353 74.1694Z" fill="#EA0029"/>
<path d="M60.1408 72.9734C60.0425 72.9455 59.946 72.9176 59.8477 72.8896C59.946 72.9176 60.0443 72.9455 60.1408 72.9734Z" fill="#EA0029"/>
<path d="M57.4466 72.1028C57.3928 72.0823 57.339 72.0618 57.2852 72.0414C57.339 72.0637 57.3928 72.0842 57.4466 72.1028Z" fill="#EA0029"/>
<path d="M58.4438 72.4525C58.3733 72.4283 58.301 72.406 58.2305 72.3818C58.301 72.406 58.3715 72.4283 58.4438 72.4525Z" fill="#EA0029"/>
<path d="M56.6638 71.807C56.5747 71.7716 56.4875 71.7363 56.3984 71.7009C56.4875 71.7363 56.5765 71.7716 56.6638 71.807Z" fill="#EA0029"/>
<path d="M60.9594 73.1928C60.874 73.1705 60.7905 73.1482 60.707 73.1259C60.7905 73.1482 60.874 73.1724 60.9594 73.1928Z" fill="#EA0029"/>
<path d="M59.3151 72.7296C59.2205 72.6999 59.1259 72.672 59.0312 72.6422C59.1259 72.672 59.2205 72.7017 59.3151 72.7296Z" fill="#EA0029"/>
<path d="M68.3798 74.3034C68.274 74.2978 68.1683 74.2922 68.0625 74.2866C68.1683 74.2922 68.274 74.2978 68.3798 74.3034Z" fill="#EA0029"/>
<path d="M64.6114 73.9332C64.5131 73.9183 64.4147 73.9016 64.3164 73.8867C64.4147 73.9016 64.5131 73.9183 64.6114 73.9332Z" fill="#EA0029"/>
<path d="M72.867 67.1621C72.841 67.2663 72.815 67.3686 72.7891 67.4728C72.8169 67.3686 72.841 67.2663 72.867 67.1621Z" fill="#EA0029"/>
<path d="M73.0547 66.3789C73.0306 66.4868 73.0046 66.5947 72.9805 66.7007C73.0046 66.5928 73.0287 66.4868 73.0547 66.3789Z" fill="#EA0029"/>
<path d="M69.2606 74.335C69.1679 74.3331 69.0732 74.3294 68.9805 74.3257C69.0751 74.3275 69.1679 74.3313 69.2606 74.335Z" fill="#EA0029"/>
<path d="M73.3778 64.8127C73.3593 64.9151 73.3389 65.0174 73.3203 65.1197C73.3389 65.0174 73.3574 64.9151 73.3778 64.8127Z" fill="#EA0029"/>
<path d="M73.5133 64.0239C73.4984 64.1114 73.4836 64.1988 73.4688 64.2881C73.4836 64.1988 73.4984 64.1114 73.5133 64.0239Z" fill="#EA0029"/>
<path d="M73.227 65.5977C73.2047 65.7055 73.1824 65.8116 73.1602 65.9176C73.1824 65.8116 73.2047 65.7037 73.227 65.5977Z" fill="#EA0029"/>
<path d="M72.3661 68.9758C72.3476 69.0372 72.3271 69.0967 72.3086 69.1581C72.3271 69.0967 72.3476 69.0354 72.3661 68.9758Z" fill="#EA0029"/>
<path d="M72.6562 67.9639C72.6321 68.055 72.608 68.1443 72.582 68.2355C72.6062 68.1443 72.6303 68.055 72.6562 67.9639Z" fill="#EA0029"/>
<path d="M71.0257 72.6385C70.9793 72.7502 70.9311 72.8599 70.8828 72.9715C70.9311 72.8599 70.9793 72.7502 71.0257 72.6385Z" fill="#EA0029"/>
<path d="M72.1273 69.7198C72.0939 69.8222 72.0587 69.9245 72.0234 70.0268C72.0587 69.9245 72.0939 69.8222 72.1273 69.7198Z" fill="#EA0029"/>
<path d="M71.3248 71.9149C71.2784 72.0284 71.2339 72.1419 71.1875 72.2553C71.2339 72.1419 71.2803 72.0284 71.3248 71.9149Z" fill="#EA0029"/>
<path d="M70.7056 73.3696C70.6592 73.4719 70.6128 73.5761 70.5664 73.6784C70.6146 73.5743 70.6592 73.4719 70.7056 73.3696Z" fill="#EA0029"/>
<path d="M71.8745 70.4565C71.8355 70.5682 71.7947 70.6779 71.7539 70.7877C71.7947 70.6779 71.8355 70.5682 71.8745 70.4565Z" fill="#EA0029"/>
<path d="M71.6064 71.1895C71.5638 71.3029 71.5211 71.4164 71.4766 71.528C71.5211 71.4164 71.5638 71.3029 71.6064 71.1895Z" fill="#EA0029"/>
<path d="M62.8763 73.6282C62.7854 73.6096 62.6945 73.5928 62.6055 73.5742C62.6945 73.5928 62.7854 73.6114 62.8763 73.6282Z" fill="#EA0029"/>
<path d="M54.8633 71.0461C54.9375 71.0796 55.0136 71.1131 55.0896 71.1466C55.0154 71.1131 54.9394 71.0796 54.8633 71.0461C54.8651 71.0461 54.8633 71.0461 54.8633 71.0461Z" fill="#EA0029"/>
<path d="M44.8203 64.2937C44.8314 64.0388 44.837 63.7821 44.837 63.518L44.8722 37.3227C44.8722 37.3227 44.8759 37.3079 44.8778 37.2967C44.8815 31.8408 46.0986 27.088 48.2898 23.189L48.2935 22.7426C44.7312 21.5985 40.9333 20.981 36.9925 20.981C36.9573 20.981 36.922 20.9828 36.8868 20.9828C34.4915 25.8956 33.1445 31.4166 33.1445 37.2539C33.1464 47.9184 37.6363 57.5281 44.8203 64.2937Z" fill="#EA0029"/>
<path d="M73.6348 63.2325C73.6348 63.2345 73.6347 63.2383 73.6328 63.2403C73.6347 63.2383 73.6348 63.2345 73.6348 63.2325C73.6348 63.2247 73.6367 63.2189 73.6367 63.2111C73.6367 63.2189 73.6367 63.2247 73.6348 63.2325Z" fill="#EA0029"/>
<path d="M70.2468 74.3444C70.2113 74.3444 70.1739 74.3463 70.1384 74.3463C70.1365 74.3463 70.1347 74.3463 70.1328 74.3463C70.1347 74.3463 70.1365 74.3463 70.1384 74.3463C70.1739 74.3463 70.2113 74.3444 70.2468 74.3444C70.2486 74.3426 70.2487 74.3407 70.2505 74.3369C70.2487 74.3388 70.2486 74.3426 70.2468 74.3444Z" fill="#EA0029"/>
<path d="M71.7539 70.7896C71.7057 70.9235 71.6556 71.0574 71.6055 71.1895C71.6556 71.0574 71.7038 70.9235 71.7539 70.7896Z" fill="#0E1F87"/>
<path d="M71.1849 72.2552C71.131 72.3836 71.0772 72.512 71.0234 72.6384C71.0772 72.5101 71.1329 72.3836 71.1849 72.2552Z" fill="#0E1F87"/>
<path d="M71.4764 71.528C71.4263 71.6582 71.3743 71.7865 71.3242 71.9149C71.3743 71.7865 71.4263 71.6582 71.4764 71.528Z" fill="#0E1F87"/>
<path d="M70.8812 72.9696C70.8237 73.1035 70.7625 73.2356 70.7031 73.3677C70.7625 73.2356 70.8237 73.1035 70.8812 72.9696Z" fill="#0E1F87"/>
<path d="M73.6344 63.239C73.5973 63.5013 73.5583 63.7636 73.5156 64.024C73.5583 63.7636 73.5973 63.5013 73.6344 63.239Z" fill="#0E1F87"/>
<path d="M73.4698 64.2863C73.4401 64.4611 73.4104 64.6378 73.3789 64.8127C73.4104 64.6378 73.4401 64.463 73.4698 64.2863Z" fill="#0E1F87"/>
<path d="M70.5635 73.6765C70.4615 73.8979 70.3558 74.1174 70.25 74.3369C70.3558 74.1192 70.4615 73.8979 70.5635 73.6765Z" fill="#0E1F87"/>
<path d="M72.9804 66.7008C72.9433 66.8552 72.9061 67.0096 72.8672 67.1621C72.9061 67.0096 72.9451 66.8552 72.9804 66.7008Z" fill="#0E1F87"/>
<path d="M73.1567 65.9176C73.1233 66.072 73.0899 66.2245 73.0547 66.3789C73.0899 66.2245 73.1233 66.072 73.1567 65.9176Z" fill="#0E1F87"/>
<path d="M72.0234 70.0269C71.9752 70.1701 71.9251 70.3152 71.875 70.4584C71.9269 70.3133 71.9752 70.1701 72.0234 70.0269Z" fill="#0E1F87"/>
<path d="M73.3212 65.1196C73.2896 65.2796 73.26 65.4396 73.2266 65.5977C73.26 65.4377 73.2915 65.2796 73.3212 65.1196Z" fill="#0E1F87"/>
<path d="M72.7898 67.4728C72.7472 67.6365 72.7026 67.802 72.6562 67.9657C72.7026 67.8002 72.7472 67.6365 72.7898 67.4728Z" fill="#0E1F87"/>
<path d="M72.5843 68.2355C72.5138 68.4829 72.4414 68.7303 72.3672 68.9758C72.4414 68.7303 72.5138 68.4829 72.5843 68.2355Z" fill="#0E1F87"/>
<path d="M72.305 69.1562C72.2456 69.3441 72.1862 69.532 72.125 69.718C72.1862 69.532 72.2456 69.346 72.305 69.1562Z" fill="#0E1F87"/>
<path d="M68.98 74.3257C68.7797 74.3201 68.5793 74.3126 68.3789 74.3033C68.5793 74.3126 68.7797 74.3182 68.98 74.3257Z" fill="#0E1F87"/>
<path d="M68.0634 74.2866C67.8705 74.2754 67.6794 74.2643 67.4883 74.2494C67.6794 74.2624 67.8705 74.2754 68.0634 74.2866Z" fill="#0E1F87"/>
<path d="M67.1808 74.2271C66.9656 74.2104 66.7504 74.1899 66.5352 74.1694C66.7504 74.1899 66.9656 74.2104 67.1808 74.2271Z" fill="#0E1F87"/>
<path d="M66.3144 74.149C66.0287 74.1192 65.7448 74.0876 65.4609 74.0504C65.7448 74.0876 66.0287 74.1192 66.3144 74.149Z" fill="#0E1F87"/>
<path d="M65.2606 74.0244C65.0435 73.9965 64.8246 73.9649 64.6094 73.9332C64.8265 73.9649 65.0435 73.9946 65.2606 74.0244Z" fill="#0E1F87"/>
<path d="M57.2837 72.0432C57.0759 71.967 56.87 71.887 56.6641 71.807C56.87 71.887 57.0759 71.9651 57.2837 72.0432Z" fill="#0E1F87"/>
<path d="M55.6056 71.3717C55.4331 71.2973 55.2624 71.2229 55.0898 71.1466C55.2605 71.2229 55.4331 71.2973 55.6056 71.3717Z" fill="#0E1F87"/>
<path d="M59.0297 72.6423C58.8331 72.5809 58.6383 72.5158 58.4453 72.4525C58.6383 72.5176 58.8331 72.5809 59.0297 72.6423Z" fill="#0E1F87"/>
<path d="M70.1356 74.3443C69.8424 74.3443 69.5512 74.3406 69.2617 74.3331C69.553 74.3406 69.8443 74.3443 70.1356 74.3443Z" fill="#0E1F87"/>
<path d="M64.3142 73.8867C64.1268 73.8569 63.9394 73.8253 63.7539 73.7937C63.9413 73.8253 64.1287 73.8569 64.3142 73.8867Z" fill="#0E1F87"/>
<path d="M56.3986 71.7009C56.2261 71.6321 56.0554 71.5614 55.8828 71.4907C56.0554 71.5614 56.2279 71.6321 56.3986 71.7009Z" fill="#0E1F87"/>
<path d="M58.232 72.3818C57.9685 72.2925 57.7069 72.1995 57.4453 72.1046C57.7051 72.1995 57.9685 72.2906 58.232 72.3818Z" fill="#0E1F87"/>
<path d="M62.6061 73.5742C62.3501 73.5202 62.094 73.4663 61.8398 73.4067C62.094 73.4663 62.3501 73.5221 62.6061 73.5742Z" fill="#0E1F87"/>
<path d="M61.7771 73.3938C61.5025 73.3305 61.2298 73.2636 60.957 73.1929C61.2298 73.2636 61.5044 73.3305 61.7771 73.3938Z" fill="#0E1F87"/>
<path d="M60.7065 73.1258C60.5173 73.0756 60.328 73.0254 60.1406 72.9714C60.3299 73.0254 60.5173 73.0775 60.7065 73.1258Z" fill="#0E1F87"/>
<path d="M59.8489 72.8897C59.6708 72.8376 59.4927 72.7855 59.3164 72.7316C59.4927 72.7837 59.6708 72.8376 59.8489 72.8897Z" fill="#0E1F87"/>
<path d="M63.4485 73.7379C63.2574 73.7026 63.0682 73.6654 62.8789 73.6282C63.0663 73.6672 63.2574 73.7044 63.4485 73.7379Z" fill="#0E1F87"/>
<path d="M73.6357 63.211C72.5912 63.3245 71.5188 63.384 70.4167 63.384C64.8618 63.384 59.8894 61.9851 55.8392 59.3958L55.8411 63.4454C55.8411 66.2599 55.496 68.7916 54.8633 71.0443C54.9375 71.0778 55.0136 71.1112 55.0896 71.1447C55.2603 71.221 55.4329 71.2973 55.6054 71.3698C55.6982 71.4089 55.791 71.4479 55.8837 71.487C56.0544 71.5595 56.227 71.6284 56.3995 71.6972C56.4886 71.7325 56.5758 71.7679 56.6648 71.8032C56.8708 71.8832 57.0767 71.9613 57.2845 72.0395C57.3383 72.0599 57.3921 72.0804 57.4459 72.1009C57.7057 72.1957 57.9691 72.2887 58.2326 72.378C58.3031 72.4022 58.3755 72.4245 58.446 72.4487C58.6408 72.5138 58.8356 72.5771 59.0304 72.6385C59.125 72.6682 59.2197 72.698 59.3143 72.7259C59.4924 72.7798 59.6686 72.8338 59.8468 72.884C59.9432 72.9119 60.0416 72.9398 60.1399 72.9677C60.3273 73.0198 60.5165 73.0719 60.7058 73.1221C60.7893 73.1444 60.8746 73.1668 60.9581 73.1891C61.2308 73.2579 61.5036 73.3267 61.7782 73.39C61.7986 73.3956 61.819 73.3993 61.8394 73.403C62.0936 73.4607 62.3496 73.5165 62.6057 73.5704C62.6966 73.589 62.7875 73.6058 62.8765 73.6244C63.0658 73.6616 63.2569 73.6988 63.4461 73.7341C63.5482 73.7527 63.6502 73.7713 63.7523 73.7881C63.9378 73.8197 64.1252 73.8513 64.3126 73.8811C64.4109 73.8959 64.5093 73.9127 64.6076 73.9276C64.8247 73.9611 65.0417 73.9908 65.2588 74.0187C65.3256 74.028 65.3924 74.0373 65.4592 74.0466C65.7431 74.082 66.0269 74.1154 66.3127 74.1452C66.385 74.1526 66.4592 74.1582 66.5316 74.1657C66.7468 74.1861 66.962 74.2066 67.1772 74.2233C67.2793 74.2308 67.3813 74.2382 67.4834 74.2457C67.6745 74.2587 67.8656 74.2717 68.0585 74.2829C68.1643 74.2884 68.2701 74.294 68.3758 74.2996C68.5762 74.3089 68.7766 74.3163 68.9769 74.3219C69.0697 74.3256 69.1625 74.3294 69.2571 74.3312C69.5484 74.3387 69.8397 74.3424 70.131 74.3424C70.1328 74.3424 70.1347 74.3424 70.1365 74.3424C70.1736 74.3424 70.2089 74.3405 70.2441 74.3405C70.246 74.3387 70.246 74.3368 70.2479 74.3331C70.3536 74.1136 70.4594 73.8941 70.5614 73.6727C70.6097 73.5704 70.6542 73.4662 70.7006 73.3639C70.7599 73.2319 70.8212 73.0998 70.8787 72.9658C70.9269 72.8561 70.9733 72.7445 71.0215 72.6329C71.0753 72.5045 71.131 72.378 71.183 72.2497C71.2293 72.1362 71.2757 72.0227 71.3203 71.9093C71.3722 71.7809 71.4223 71.6507 71.4724 71.5223C71.5169 71.4089 71.5596 71.2973 71.6023 71.1838C71.6524 71.0499 71.7025 70.9178 71.7507 70.7838C71.7915 70.6741 71.8305 70.5625 71.8713 70.4527C71.9214 70.3095 71.9715 70.1663 72.0197 70.0212C72.055 69.9189 72.0902 69.8165 72.1236 69.7142C72.1848 69.5282 72.2442 69.3403 72.3036 69.1525C72.3221 69.0911 72.3426 69.0315 72.3611 68.9702C72.4372 68.7246 72.5095 68.4772 72.5782 68.2298C72.6042 68.1405 72.6283 68.0494 72.6524 67.9582C72.6969 67.7945 72.7415 67.6308 72.786 67.4653C72.812 67.3629 72.8379 67.2588 72.8639 67.1546C72.9029 67.0002 72.94 66.8477 72.9771 66.6933C73.0031 66.5854 73.0272 66.4794 73.0513 66.3715C73.0865 66.2189 73.1199 66.0645 73.1533 65.9101C73.1756 65.8041 73.1997 65.6962 73.2201 65.5902C73.2535 65.4321 73.2832 65.2721 73.3148 65.1121C73.3352 65.0098 73.3537 64.9075 73.3723 64.8052C73.4038 64.6303 73.4335 64.4555 73.4632 64.2788C73.478 64.1913 73.4929 64.1039 73.5077 64.0146C73.5504 63.7542 73.5893 63.4919 73.6265 63.2296C73.6265 63.2277 73.6265 63.224 73.6283 63.2222C73.6339 63.224 73.6339 63.2184 73.6357 63.211Z" fill="#0E1F87"/>
<path d="M54.8398 71.0332C54.8495 71.0371 54.8573 71.041 54.867 71.0449C54.8573 71.041 54.8476 71.0371 54.8398 71.0332Z" fill="white"/>
<path d="M121.77 55.121H123.239V67.3592H121.77V55.121ZM122.742 56.4585V55.1191H129.855V56.4585H122.742ZM122.838 62.1376V60.8188H129.284V62.1376H122.838Z" fill="black" stroke="black" stroke-miterlimit="10"/>
<path d="M135.369 67.549C134.111 67.549 133.096 67.1882 132.326 66.4683C131.556 65.7484 131.172 64.7513 131.172 63.4752V58.0825H132.602V63.3785C132.602 64.2584 132.847 64.9597 133.337 65.4824C133.827 66.0051 134.504 66.2655 135.369 66.2655C136.233 66.2655 136.91 66.0051 137.4 65.4824C137.89 64.9597 138.135 64.2584 138.135 63.3785V58.0825H139.565V63.4752C139.565 64.316 139.387 65.0396 139.031 65.6461C138.675 66.2525 138.183 66.7194 137.552 67.0524C136.923 67.3835 136.194 67.549 135.369 67.549Z" fill="black" stroke="black" stroke-miterlimit="10"/>
<path d="M141.93 58.0843H142.978L143.36 60.4933V67.3574H141.93V58.0843ZM143.36 62.0037L142.731 61.3341C142.731 60.6588 142.887 60.0617 143.199 59.5464C143.51 59.0293 143.952 58.6256 144.523 58.3317C145.095 58.0378 145.75 57.8927 146.488 57.8927C147.264 57.8927 147.95 58.0452 148.548 58.3522C149.145 58.6572 149.618 59.1018 149.969 59.6803C150.318 60.2607 150.494 60.9583 150.494 61.7749V67.3592H149.064V62.0056C149.064 61.3545 148.93 60.8225 148.663 60.4095C148.396 59.9947 148.049 59.6859 147.624 59.4813C147.197 59.2785 146.729 59.1762 146.221 59.1762C145.382 59.1762 144.696 59.4311 144.162 59.9408C143.627 60.4486 143.36 61.1369 143.36 62.0037Z" fill="black" stroke="black" stroke-miterlimit="10"/>
<path d="M161.382 62.7125C161.382 63.6686 161.185 64.5094 160.79 65.2368C160.397 65.9641 159.855 66.5315 159.168 66.9389C158.482 67.3462 157.706 67.5509 156.842 67.5509C155.99 67.5509 155.211 67.3462 154.506 66.9389C153.801 66.5315 153.24 65.9641 152.827 65.2368C152.413 64.5094 152.207 63.6686 152.207 62.7125C152.207 61.7564 152.413 60.9174 152.827 60.1975C153.24 59.4776 153.799 58.914 154.506 58.5047C155.211 58.0974 155.99 57.8927 156.842 57.8927C157.719 57.8927 158.499 58.0974 159.178 58.5047C159.859 58.9121 160.382 59.4925 160.751 60.244C160.955 60.5751 161.111 60.9509 161.218 61.3713C161.328 61.7936 161.382 62.24 161.382 62.7125ZM160.428 62.7125C160.428 62.0112 160.282 61.3936 159.99 60.8579C159.697 60.3222 159.296 59.9092 158.788 59.6153C158.28 59.3214 157.695 59.1763 157.033 59.1763C156.385 59.1763 155.808 59.3232 155.307 59.6153C154.805 59.9092 154.404 60.3222 154.105 60.8579C153.806 61.3936 153.656 62.0112 153.656 62.7125C153.656 63.4268 153.804 64.0518 154.105 64.5857C154.404 65.1215 154.805 65.5363 155.307 65.8283C155.81 66.1222 156.385 66.2673 157.033 66.2673C157.693 66.2673 158.28 66.1204 158.788 65.8283C159.296 65.5344 159.697 65.1215 159.99 64.5857C160.282 64.05 160.428 63.4268 160.428 62.7125ZM161.764 67.3593H160.695L160.333 64.9503V64.223L160.562 64.0704V61.2597L160.333 61.1072V54.1649H161.764V67.3593Z" fill="black" stroke="black" stroke-miterlimit="10"/>
<path d="M172.882 62.7125C172.882 63.6686 172.685 64.5094 172.29 65.2367C171.897 65.9641 171.355 66.5314 170.668 66.9388C169.982 67.3462 169.206 67.5508 168.342 67.5508C167.49 67.5508 166.711 67.3462 166.006 66.9388C165.301 66.5314 164.74 65.9641 164.327 65.2367C163.913 64.5094 163.707 63.6686 163.707 62.7125C163.707 61.7563 163.913 60.9174 164.327 60.1975C164.74 59.4776 165.299 58.9139 166.006 58.5047C166.711 58.0973 167.49 57.8927 168.342 57.8927C169.206 57.8927 169.982 58.0973 170.668 58.5047C171.355 58.9121 171.895 59.4776 172.29 60.1975C172.685 60.9174 172.882 61.7563 172.882 62.7125ZM171.93 62.7125C171.93 62.0112 171.783 61.3936 171.492 60.8578C171.199 60.3221 170.798 59.9091 170.29 59.6152C169.781 59.3213 169.197 59.1762 168.535 59.1762C167.887 59.1762 167.31 59.3232 166.809 59.6152C166.306 59.9091 165.906 60.3221 165.607 60.8578C165.308 61.3936 165.158 62.0112 165.158 62.7125C165.158 63.4268 165.306 64.0518 165.607 64.5857C165.906 65.1214 166.306 65.5362 166.809 65.8283C167.312 66.1222 167.887 66.2673 168.535 66.2673C169.195 66.2673 169.781 66.1203 170.29 65.8283C170.798 65.5344 171.199 65.1214 171.492 64.5857C171.783 64.0499 171.93 63.4268 171.93 62.7125ZM173.264 67.3592H172.195L171.833 64.9503V64.2229L172.062 64.0704V61.2596L171.833 61.1071V60.4951L172.195 58.0862H173.264V67.3592Z" fill="black" stroke="black" stroke-miterlimit="10"/>
<path d="M183.619 65.7334C183.2 66.3063 182.669 66.7528 182.028 67.0727C181.386 67.3908 180.669 67.5508 179.883 67.5508C178.992 67.5508 178.194 67.3462 177.489 66.9388C176.784 66.5314 176.228 65.9641 175.821 65.2367C175.415 64.5094 175.211 63.6686 175.211 62.7125C175.211 61.7563 175.415 60.9174 175.821 60.1975C176.228 59.4776 176.784 58.9139 177.489 58.5047C178.194 58.0973 178.992 57.8927 179.883 57.8927C180.671 57.8927 181.386 58.049 182.028 58.3615C182.669 58.674 183.2 59.1167 183.619 59.6896C184.039 60.2626 184.311 60.9397 184.439 61.7173H182.97C182.805 60.9267 182.449 60.3054 181.901 59.8533C181.354 59.4013 180.681 59.1744 179.879 59.1744C179.23 59.1744 178.664 59.3213 178.181 59.6134C177.697 59.9073 177.322 60.3184 177.057 60.8467C176.79 61.375 176.656 61.9963 176.656 62.7106C176.656 63.4249 176.79 64.0499 177.057 64.5838C177.324 65.1195 177.699 65.5344 178.181 65.8264C178.664 66.1203 179.23 66.2654 179.879 66.2654C180.681 66.2654 181.354 66.0329 181.901 65.5679C182.449 65.1028 182.805 64.4871 182.97 63.7225H184.439C184.311 64.4908 184.039 65.1586 183.619 65.7334Z" fill="black" stroke="black" stroke-miterlimit="10"/>
<path d="M186.23 54.4514H187.795V56.1535H186.23V54.4514ZM186.307 58.0844H187.737V67.3593H186.307V58.0844Z" fill="black" stroke="black" stroke-miterlimit="10"/>
<path d="M199.334 62.7311C199.334 63.6742 199.125 64.5094 198.705 65.2368C198.286 65.9641 197.711 66.5315 196.98 66.9389C196.249 67.3462 195.42 67.5509 194.492 67.5509C193.564 67.5509 192.735 67.3462 192.004 66.9389C191.273 66.5315 190.7 65.9641 190.288 65.2368C189.874 64.5094 189.668 63.6686 189.668 62.7125C189.668 61.7564 189.874 60.9174 190.288 60.1975C190.701 59.4776 191.273 58.914 192.004 58.5047C192.735 58.0974 193.564 57.8927 194.492 57.8927C195.42 57.8927 196.249 58.0974 196.98 58.5047C197.711 58.9121 198.286 59.4776 198.705 60.1975C199.125 60.9174 199.334 61.7619 199.334 62.7311ZM197.883 62.7311C197.883 62.0168 197.741 61.3918 197.455 60.8579C197.169 60.3222 196.772 59.9092 196.264 59.6153C195.755 59.3214 195.164 59.1763 194.49 59.1763C193.817 59.1763 193.225 59.3232 192.716 59.6153C192.208 59.9092 191.811 60.3222 191.525 60.8579C191.239 61.3936 191.097 62.0112 191.097 62.7125C191.097 63.4268 191.239 64.0518 191.525 64.5857C191.811 65.1196 192.208 65.5363 192.716 65.8283C193.225 66.1222 193.817 66.2673 194.49 66.2673C195.164 66.2673 195.755 66.1204 196.264 65.8283C196.772 65.5344 197.169 65.1215 197.455 64.5857C197.741 64.05 197.883 63.4324 197.883 62.7311ZM195.729 54.1649H197.236L195.158 57.0333H193.822L195.729 54.1649Z" fill="black" stroke="black" stroke-miterlimit="10"/>
<path d="M201.262 58.0843H202.31L202.692 60.4933V67.3574H201.262V58.0843ZM202.692 62.0037L202.063 61.3341C202.063 60.6588 202.219 60.0617 202.531 59.5464C202.842 59.0293 203.284 58.6256 203.855 58.3317C204.427 58.0378 205.082 57.8927 205.82 57.8927C206.596 57.8927 207.282 58.0452 207.88 58.3522C208.477 58.6572 208.95 59.1018 209.301 59.6803C209.65 60.2607 209.826 60.9583 209.826 61.7749V67.3592H208.396V62.0056C208.396 61.3545 208.262 60.8225 207.995 60.4095C207.728 59.9947 207.381 59.6859 206.956 59.4813C206.529 59.2785 206.062 59.1762 205.553 59.1762C204.715 59.1762 204.028 59.4311 203.494 59.9408C202.959 60.4486 202.692 61.1369 202.692 62.0037Z" fill="black" stroke="black" stroke-miterlimit="10"/>
<path d="M220.197 67.549C218.557 67.549 217.275 67.0877 216.355 66.1632C215.433 65.2387 214.973 63.9347 214.973 62.2531V55.1211H216.422V62.2345C216.422 63.5347 216.748 64.5225 217.403 65.1978C218.058 65.873 218.989 66.2116 220.197 66.2116C221.405 66.2116 222.337 65.8749 222.991 65.1978C223.646 64.5225 223.973 63.5347 223.973 62.2345V55.1211H225.442V62.2531C225.442 63.9365 224.979 65.2387 224.051 66.1632C223.121 67.0877 221.837 67.549 220.197 67.549Z" fill="black" stroke="black" stroke-miterlimit="10"/>
<path d="M227.883 58.0843H228.931L229.313 60.4933V67.3574H227.883V58.0843ZM229.313 62.0037L228.684 61.3341C228.684 60.6588 228.84 60.0617 229.152 59.5464C229.464 59.0293 229.905 58.6256 230.477 58.3317C231.048 58.0378 231.703 57.8927 232.441 57.8927C233.217 57.8927 233.903 58.0452 234.501 58.3522C235.098 58.6572 235.571 59.1018 235.922 59.6803C236.271 60.2607 236.447 60.9583 236.447 61.7749V67.3592H235.017V62.0056C235.017 61.3545 234.883 60.8225 234.616 60.4095C234.349 59.9947 234.002 59.6859 233.577 59.4813C233.15 59.2785 232.683 59.1762 232.174 59.1762C231.336 59.1762 230.649 59.4311 230.115 59.9408C229.58 60.4486 229.313 61.1369 229.313 62.0037Z" fill="black" stroke="black" stroke-miterlimit="10"/>
<path d="M238.773 54.4514H240.338V56.1535H238.773V54.4514ZM238.85 58.0844H240.28V67.3593H238.85V58.0844Z" fill="black" stroke="black" stroke-miterlimit="10"/>
<path d="M245.717 67.3593L241.598 58.0844H243.123L246.841 66.5557H246.136L249.817 58.0844H251.323L247.205 67.3593H245.717Z" fill="black" stroke="black" stroke-miterlimit="10"/>
<path d="M259.695 62.1954C259.695 61.5443 259.548 60.99 259.257 60.5324C258.964 60.0729 258.567 59.7232 258.066 59.4814C257.563 59.2396 257.014 59.1187 256.417 59.1187C255.756 59.1187 255.174 59.2563 254.671 59.5298C254.168 59.8032 253.776 60.205 253.498 60.7352C253.218 61.2635 253.079 61.9182 253.079 62.6958C253.079 63.4473 253.225 64.091 253.517 64.6267C253.81 65.1624 254.212 65.5772 254.728 65.8693C255.244 66.1632 255.843 66.3083 256.53 66.3083C257.19 66.3083 257.734 66.1967 258.161 65.9735C258.587 65.7502 258.914 65.4787 259.142 65.1606C259.37 64.8425 259.535 64.543 259.637 64.2621H261.049C260.921 64.7978 260.678 65.3205 260.315 65.8302C259.953 66.3399 259.459 66.7547 258.836 67.0728C258.213 67.3909 257.444 67.5509 256.528 67.5509C255.574 67.5509 254.732 67.3444 254.001 66.9296C253.27 66.5148 252.7 65.9456 252.294 65.2182C251.888 64.4909 251.684 63.6501 251.684 62.6939C251.684 61.7508 251.88 60.9193 252.275 60.1994C252.669 59.4795 253.222 58.9159 253.934 58.5067C254.647 58.0993 255.48 57.8947 256.433 57.8947C257.348 57.8947 258.157 58.09 258.855 58.4769C259.554 58.8657 260.098 59.4014 260.485 60.0822C260.873 60.7649 261.068 61.5388 261.068 62.4056C261.068 62.4819 261.064 62.5842 261.059 62.7125C261.051 62.8409 261.042 62.9488 261.031 63.0381H252.411V61.948H260.153L259.695 62.1954Z" fill="black" stroke="black" stroke-miterlimit="10"/>
<path d="M263.031 58.0844L264.462 58.1792V67.3574H263.031V58.0844ZM263.107 59.366V58.0844H268.313L267.855 59.366H263.107Z" fill="black" stroke="black" stroke-miterlimit="10"/>
<path d="M275.333 64.9484C275.333 64.5913 275.196 64.2788 274.923 64.0109C274.65 63.743 274.112 63.5589 273.311 63.4566L272.108 63.304C271.04 63.1515 270.274 62.8315 269.81 62.3479C269.346 61.8642 269.114 61.2764 269.114 60.5881C269.114 59.7604 269.435 59.1037 270.077 58.6182C270.719 58.1346 271.6 57.8909 272.719 57.8909C273.494 57.8909 274.168 58.0211 274.741 58.2834C275.313 58.5457 275.762 58.901 276.086 59.3548C276.411 59.8069 276.585 60.3277 276.611 60.9137H275.2C275.161 60.391 274.938 59.9538 274.532 59.6041C274.125 59.2544 273.52 59.0777 272.719 59.0777C272.006 59.0777 271.463 59.206 271.088 59.4609C270.713 59.7157 270.526 60.0803 270.526 60.5509C270.526 60.9341 270.669 61.2485 270.954 61.4978C271.24 61.747 271.752 61.9219 272.489 62.0242L273.691 62.1768C274.784 62.3293 275.571 62.6325 276.047 63.0845C276.524 63.5366 276.762 64.1262 276.762 64.8536C276.762 65.4153 276.61 65.899 276.303 66.3064C275.999 66.7138 275.569 67.0226 275.016 67.2346C274.463 67.4448 273.812 67.5508 273.06 67.5508C272.17 67.5508 271.424 67.4002 270.819 67.1007C270.214 66.8012 269.758 66.3994 269.446 65.8953C269.134 65.3912 268.966 64.8331 268.941 64.2211H270.353C270.392 64.5783 270.5 64.9187 270.678 65.2442C270.856 65.5697 271.138 65.8339 271.526 66.0385C271.914 66.2431 272.426 66.3436 273.06 66.3436C273.823 66.3436 274.392 66.2189 274.767 65.9715C275.146 65.7241 275.333 65.3819 275.333 64.9484Z" fill="black" stroke="black" stroke-miterlimit="10"/>
<path d="M278.652 54.4514H280.216V56.1535H278.652V54.4514ZM278.728 58.0844H280.159V67.3593H278.728V58.0844Z" fill="black" stroke="black" stroke-miterlimit="10"/>
<path d="M282.962 58.4285L283.478 58.0844H288.018V59.3084H281.609V58.9829L284.07 56.4214H284.394V64.396C284.394 64.9318 284.554 65.3429 284.871 65.6293C285.188 65.9158 285.723 66.059 286.472 66.059H288.073V67.3593H286.415C285.537 67.3593 284.851 67.2421 284.355 67.0059C283.86 66.7696 283.504 66.4348 283.287 66.0014C283.07 65.568 282.962 65.0527 282.962 64.4518V58.4285Z" fill="black" stroke="black" stroke-miterlimit="10"/>
<path d="M298.065 62.7125C298.065 63.6686 297.869 64.5094 297.473 65.2367C297.08 65.9641 296.538 66.5314 295.852 66.9388C295.165 67.3462 294.39 67.5508 293.525 67.5508C292.674 67.5508 291.894 67.3462 291.189 66.9388C290.484 66.5314 289.924 65.9641 289.51 65.2367C289.097 64.5094 288.891 63.6686 288.891 62.7125C288.891 61.7563 289.097 60.9174 289.51 60.1975C289.924 59.4776 290.483 58.9139 291.189 58.5047C291.894 58.0973 292.674 57.8927 293.525 57.8927C294.39 57.8927 295.165 58.0973 295.852 58.5047C296.538 58.9121 297.078 59.4776 297.473 60.1975C297.869 60.9174 298.065 61.7563 298.065 62.7125ZM297.112 62.7125C297.112 62.0112 296.965 61.3936 296.674 60.8578C296.381 60.3221 295.98 59.9091 295.472 59.6152C294.963 59.3213 294.379 59.1762 293.716 59.1762C293.069 59.1762 292.492 59.3232 291.991 59.6152C291.488 59.9091 291.087 60.3221 290.789 60.8578C290.49 61.3936 290.34 62.0112 290.34 62.7125C290.34 63.4268 290.488 64.0518 290.789 64.5857C291.087 65.1214 291.488 65.5362 291.991 65.8283C292.494 66.1222 293.069 66.2673 293.716 66.2673C294.377 66.2673 294.963 66.1203 295.472 65.8283C295.98 65.5344 296.381 65.1214 296.674 64.5857C296.967 64.0499 297.112 63.4268 297.112 62.7125ZM298.448 67.3592H297.379L297.017 64.9503V64.2229L297.245 64.0704V61.2596L297.017 61.1071V60.4951L297.379 58.0862H298.448V67.3592Z" fill="black" stroke="black" stroke-miterlimit="10"/>
<path d="M301.078 58.0844L302.509 58.1792V67.3574H301.078V58.0844ZM301.156 59.366V58.0844H306.362L305.904 59.366H301.156Z" fill="black" stroke="black" stroke-miterlimit="10"/>
<path d="M307.566 54.4514H309.13V56.1535H307.566V54.4514ZM307.642 58.0844H309.073V67.3593H307.642V58.0844Z" fill="black" stroke="black" stroke-miterlimit="10"/>
<path d="M320.171 62.7125C320.171 63.6686 319.974 64.5094 319.579 65.2367C319.186 65.9641 318.644 66.5314 317.957 66.9388C317.271 67.3462 316.495 67.5508 315.631 67.5508C314.779 67.5508 314 67.3462 313.295 66.9388C312.59 66.5314 312.03 65.9641 311.616 65.2367C311.202 64.5094 310.996 63.6686 310.996 62.7125C310.996 61.7563 311.202 60.9174 311.616 60.1975C312.03 59.4776 312.588 58.9139 313.295 58.5047C314 58.0973 314.779 57.8927 315.631 57.8927C316.495 57.8927 317.271 58.0973 317.957 58.5047C318.644 58.9121 319.184 59.4776 319.579 60.1975C319.974 60.9174 320.171 61.7563 320.171 62.7125ZM319.217 62.7125C319.217 62.0112 319.071 61.3936 318.779 60.8578C318.486 60.3221 318.085 59.9091 317.577 59.6152C317.069 59.3213 316.484 59.1762 315.822 59.1762C315.174 59.1762 314.597 59.3232 314.096 59.6152C313.594 59.9091 313.193 60.3221 312.894 60.8578C312.595 61.3936 312.445 62.0112 312.445 62.7125C312.445 63.4268 312.594 64.0518 312.894 64.5857C313.193 65.1214 313.594 65.5362 314.096 65.8283C314.599 66.1222 315.174 66.2673 315.822 66.2673C316.482 66.2673 317.069 66.1203 317.577 65.8283C318.085 65.5344 318.486 65.1214 318.779 64.5857C319.071 64.0499 319.217 63.4268 319.217 62.7125ZM320.553 67.3592H319.484L319.123 64.9503V64.2229L319.351 64.0704V61.2596L319.123 61.1071V60.4951L319.484 58.0862H320.553V67.3592Z" fill="black" stroke="black" stroke-miterlimit="10"/>
<path d="M326.215 55.121H327.684V67.3592H326.215V55.121ZM327.284 56.4585V55.1191H334.454V56.4585H327.284ZM327.284 61.814V60.4951H333.883V61.814H327.284ZM327.284 67.3592V66.0199H334.454V67.3592H327.284Z" fill="black" stroke="black" stroke-miterlimit="10"/>
<path d="M336.289 58.0843H337.337L337.72 60.4933V67.3574H336.289V58.0843ZM337.72 61.7935L337.091 61.1052C337.091 60.4802 337.237 59.9296 337.528 59.4515C337.822 58.9735 338.233 58.594 338.768 58.3131C339.302 58.0322 339.924 57.8927 340.636 57.8927C341.362 57.8927 342.009 58.0359 342.581 58.3224C343.152 58.6089 343.601 59.0274 343.926 59.5743C344.25 60.1231 344.412 60.7797 344.412 61.5443V67.3574H343V61.7935C343 61.1945 342.876 60.6997 342.629 60.3109C342.38 59.9222 342.057 59.6357 341.657 59.4515C341.256 59.2674 340.827 59.1744 340.369 59.1744C339.58 59.1744 338.942 59.4106 338.452 59.8812C337.964 60.3537 337.72 60.9918 337.72 61.7935ZM344.414 61.7935L343.67 61.1052C343.67 60.4932 343.822 59.9445 344.128 59.4608C344.432 58.9772 344.863 58.594 345.416 58.3131C345.968 58.0322 346.607 57.8927 347.332 57.8927C348.058 57.8927 348.705 58.0359 349.278 58.3224C349.852 58.6089 350.303 59.0274 350.633 59.5743C350.963 60.1231 351.128 60.7797 351.128 61.5443V67.3574H349.698V61.7935C349.698 61.1945 349.577 60.6997 349.336 60.3109C349.095 59.9222 348.774 59.6357 348.373 59.4515C347.972 59.2674 347.536 59.1744 347.067 59.1744C346.291 59.1744 345.655 59.4106 345.159 59.8812C344.662 60.3537 344.414 60.9918 344.414 61.7935Z" fill="black" stroke="black" stroke-miterlimit="10"/>
<path d="M353.566 58.0843H354.615L354.997 60.4933V61.2206L354.748 61.3731V64.1839L354.997 64.3178V70.9922H353.566V58.0843ZM353.928 62.7125C353.928 61.7563 354.125 60.9174 354.52 60.1975C354.913 59.4776 355.455 58.9139 356.142 58.5047C356.828 58.0973 357.598 57.8927 358.45 57.8927C359.327 57.8927 360.116 58.0973 360.815 58.5047C361.515 58.9121 362.071 59.4776 362.483 60.1975C362.897 60.9174 363.103 61.7619 363.103 62.7311C363.103 63.6742 362.897 64.5094 362.483 65.2367C362.069 65.9641 361.513 66.5314 360.815 66.9388C360.116 67.3462 359.335 67.5508 358.47 67.5508C357.605 67.5508 356.834 67.3443 356.153 66.9295C355.472 66.5147 354.941 65.938 354.561 65.1995C354.357 64.8554 354.201 64.4722 354.093 64.0518C353.982 63.6295 353.928 63.1831 353.928 62.7125ZM354.882 62.7125C354.882 63.4268 355.028 64.0518 355.32 64.5857C355.613 65.1214 356.015 65.5362 356.531 65.8283C357.047 66.1222 357.628 66.2673 358.277 66.2673C358.925 66.2673 359.504 66.1203 360.012 65.8283C360.52 65.5344 360.921 65.1214 361.214 64.5857C361.507 64.0499 361.652 63.4324 361.652 62.7311C361.652 62.0167 361.505 61.3917 361.214 60.8578C360.921 60.3221 360.52 59.9092 360.012 59.6152C359.504 59.3213 358.919 59.1762 358.257 59.1762C357.62 59.1762 357.045 59.3232 356.531 59.6152C356.015 59.9092 355.613 60.3221 355.32 60.8578C355.028 61.3917 354.882 62.0112 354.882 62.7125Z" fill="black" stroke="black" stroke-miterlimit="10"/>
<path d="M365.066 58.0844L366.497 58.1792V67.3574H365.066V58.0844ZM365.142 59.366V58.0844H370.349L369.89 59.366H365.142Z" fill="black" stroke="black" stroke-miterlimit="10"/>
<path d="M378.816 62.1954C378.816 61.5443 378.67 60.99 378.378 60.5324C378.085 60.0729 377.688 59.7232 377.187 59.4814C376.684 59.2396 376.135 59.1187 375.538 59.1187C374.877 59.1187 374.295 59.2563 373.792 59.5298C373.289 59.8032 372.899 60.205 372.619 60.7352C372.339 61.2635 372.2 61.9182 372.2 62.6958C372.2 63.4473 372.346 64.091 372.638 64.6267C372.931 65.1624 373.334 65.5772 373.849 65.8693C374.365 66.1632 374.964 66.3083 375.651 66.3083C376.311 66.3083 376.855 66.1967 377.282 65.9735C377.707 65.7502 378.035 65.4787 378.263 65.1606C378.491 64.8425 378.657 64.543 378.759 64.2621H380.171C380.043 64.7978 379.799 65.3205 379.436 65.8302C379.074 66.3399 378.58 66.7547 377.957 67.0728C377.334 67.3909 376.566 67.5509 375.649 67.5509C374.695 67.5509 373.853 67.3444 373.122 66.9296C372.391 66.5148 371.821 65.9456 371.415 65.2182C371.009 64.4909 370.805 63.6501 370.805 62.6939C370.805 61.7508 371.001 60.9193 371.397 60.1994C371.79 59.4795 372.343 58.9159 373.055 58.5067C373.768 58.0993 374.601 57.8947 375.554 57.8947C376.469 57.8947 377.278 58.09 377.976 58.4769C378.675 58.8657 379.219 59.4014 379.606 60.0822C379.994 60.7649 380.189 61.5388 380.189 62.4056C380.189 62.4819 380.185 62.5842 380.18 62.7125C380.172 62.8409 380.163 62.9488 380.152 63.0381H371.532V61.948H379.274L378.816 62.1954Z" fill="black" stroke="black" stroke-miterlimit="10"/>
<path d="M387.896 64.9484C387.896 64.5913 387.758 64.2788 387.486 64.0109C387.213 63.743 386.675 63.5589 385.873 63.4566L384.671 63.304C383.602 63.1515 382.836 62.8315 382.372 62.3479C381.908 61.8642 381.676 61.2764 381.676 60.5881C381.676 59.7604 381.997 59.1037 382.639 58.6182C383.281 58.1346 384.163 57.8909 385.281 57.8909C386.057 57.8909 386.73 58.0211 387.304 58.2834C387.875 58.5457 388.324 58.901 388.649 59.3548C388.974 59.8069 389.148 60.3277 389.174 60.9137H387.762C387.723 60.391 387.5 59.9538 387.094 59.6041C386.688 59.2544 386.083 59.0777 385.281 59.0777C384.569 59.0777 384.025 59.206 383.651 59.4609C383.276 59.7157 383.088 60.0803 383.088 60.5509C383.088 60.9341 383.231 61.2485 383.517 61.4978C383.803 61.747 384.315 61.9219 385.051 62.0242L386.254 62.1768C387.346 62.3293 388.131 62.6325 388.61 63.0845C389.087 63.5366 389.324 64.1262 389.324 64.8536C389.324 65.4153 389.172 65.899 388.866 66.3064C388.56 66.7138 388.131 67.0226 387.578 67.2346C387.025 67.4467 386.374 67.5508 385.623 67.5508C384.732 67.5508 383.986 67.4002 383.382 67.1007C382.777 66.8012 382.32 66.3994 382.009 65.8953C381.697 65.3912 381.528 64.8331 381.504 64.2211H382.916C382.955 64.5783 383.062 64.9187 383.241 65.2442C383.419 65.5697 383.701 65.8339 384.088 66.0385C384.476 66.2431 384.988 66.3436 385.623 66.3436C386.385 66.3436 386.955 66.2189 387.33 65.9715C387.708 65.7241 387.896 65.3819 387.896 64.9484Z" fill="black" stroke="black" stroke-miterlimit="10"/>
<path d="M399.776 62.7125C399.776 63.6686 399.58 64.5094 399.184 65.2367C398.791 65.9641 398.249 66.5314 397.563 66.9388C396.876 67.3462 396.101 67.5508 395.236 67.5508C394.385 67.5508 393.605 67.3462 392.9 66.9388C392.195 66.5314 391.635 65.9641 391.221 65.2367C390.808 64.5094 390.602 63.6686 390.602 62.7125C390.602 61.7563 390.808 60.9174 391.221 60.1975C391.635 59.4776 392.193 58.9139 392.9 58.5047C393.605 58.0973 394.385 57.8927 395.236 57.8927C396.101 57.8927 396.876 58.0973 397.563 58.5047C398.249 58.9121 398.789 59.4776 399.184 60.1975C399.578 60.9174 399.776 61.7563 399.776 62.7125ZM398.823 62.7125C398.823 62.0112 398.676 61.3936 398.385 60.8578C398.092 60.3221 397.691 59.9091 397.182 59.6152C396.674 59.3213 396.09 59.1762 395.427 59.1762C394.778 59.1762 394.203 59.3232 393.702 59.6152C393.199 59.9091 392.798 60.3221 392.5 60.8578C392.201 61.3936 392.051 62.0112 392.051 62.7125C392.051 63.4268 392.199 64.0518 392.5 64.5857C392.798 65.1214 393.199 65.5362 393.702 65.8283C394.205 66.1222 394.78 66.2673 395.427 66.2673C396.088 66.2673 396.674 66.1203 397.182 65.8283C397.691 65.5344 398.092 65.1214 398.385 64.5857C398.676 64.0499 398.823 63.4268 398.823 62.7125ZM400.157 67.3592H399.088L398.726 64.9503V64.2229L398.954 64.0704V61.2596L398.726 61.1071V60.4951L399.088 58.0862H400.157V67.3592Z" fill="black" stroke="black" stroke-miterlimit="10"/>
<path d="M402.789 58.0844L404.22 58.1792V67.3574H402.789V58.0844ZM402.865 59.366V58.0844H408.071L407.613 59.366H402.865Z" fill="black" stroke="black" stroke-miterlimit="10"/>
<path d="M409.273 54.4514H410.838V56.1535H409.273V54.4514ZM409.35 58.0844H410.78V67.3593H409.35V58.0844Z" fill="black" stroke="black" stroke-miterlimit="10"/>
<path d="M421.882 62.7125C421.882 63.6686 421.685 64.5094 421.29 65.2367C420.897 65.9641 420.355 66.5314 419.668 66.9388C418.982 67.3462 418.206 67.5508 417.342 67.5508C416.49 67.5508 415.711 67.3462 415.006 66.9388C414.301 66.5314 413.74 65.9641 413.327 65.2367C412.913 64.5094 412.707 63.6686 412.707 62.7125C412.707 61.7563 412.913 60.9174 413.327 60.1975C413.74 59.4776 414.299 58.9139 415.006 58.5047C415.711 58.0973 416.49 57.8927 417.342 57.8927C418.206 57.8927 418.982 58.0973 419.668 58.5047C420.355 58.9121 420.895 59.4776 421.29 60.1975C421.685 60.9174 421.882 61.7563 421.882 62.7125ZM420.928 62.7125C420.928 62.0112 420.782 61.3936 420.49 60.8578C420.197 60.3221 419.796 59.9091 419.288 59.6152C418.78 59.3213 418.195 59.1762 417.533 59.1762C416.883 59.1762 416.308 59.3232 415.807 59.6152C415.305 59.9091 414.904 60.3221 414.605 60.8578C414.306 61.3936 414.156 62.0112 414.156 62.7125C414.156 63.4268 414.304 64.0518 414.605 64.5857C414.904 65.1214 415.305 65.5362 415.807 65.8283C416.31 66.1222 416.885 66.2673 417.533 66.2673C418.193 66.2673 418.78 66.1203 419.288 65.8283C419.796 65.5344 420.197 65.1214 420.49 64.5857C420.782 64.0499 420.928 63.4268 420.928 62.7125ZM422.264 67.3592H421.195L420.833 64.9503V64.2229L421.062 64.0704V61.2596L420.833 61.1071V60.4951L421.195 58.0862H422.264V67.3592Z" fill="black" stroke="black" stroke-miterlimit="10"/>
<path d="M424.895 54.1649H426.325V67.3593H424.895V54.1649Z" fill="black" stroke="black" stroke-miterlimit="10"/>
<path d="M121.656 78.9539H427.813" stroke="#EA0029" stroke-width="2" stroke-miterlimit="10" stroke-linecap="round" stroke-linejoin="round"/>
<path d="M128.545 33.0239C128.545 33.8796 128.664 34.6069 128.9 35.2022C129.137 35.7993 129.449 36.2848 129.837 36.6606C130.225 37.0363 130.675 37.3117 131.189 37.4847C131.703 37.6576 132.238 37.7451 132.792 37.7451C133.371 37.7451 133.917 37.6446 134.431 37.4419C134.945 37.2391 135.395 36.9378 135.783 36.5397C136.171 36.1397 136.477 35.6468 136.702 35.0552C136.928 34.4656 137.039 33.7884 137.039 33.0239V18.3024C137.039 18.094 137.112 17.9154 137.256 17.7648C137.401 17.6141 137.594 17.5397 137.835 17.5397H142.887C143.153 17.5397 143.36 17.6178 143.511 17.7741C143.661 17.9303 143.735 18.107 143.735 18.3024V32.9253C143.735 34.9492 143.438 36.6494 142.845 38.026C142.251 39.4025 141.451 40.5093 140.448 41.3483C139.444 42.1872 138.282 42.7881 136.961 43.1527C135.64 43.5173 134.254 43.6996 132.8 43.6996C131.345 43.6996 129.957 43.5117 128.631 43.1359C127.304 42.7602 126.139 42.1463 125.135 41.298C124.132 40.4479 123.334 39.3374 122.738 37.9683C122.145 36.5973 121.848 34.9176 121.848 32.929V18.3024C121.848 18.1052 121.914 17.9303 122.046 17.7741C122.178 17.6178 122.343 17.5397 122.538 17.5397H127.714C127.887 17.5397 128.069 17.6122 128.258 17.7573C128.447 17.9024 128.544 18.0847 128.544 18.3042V33.0239H128.545Z" fill="#EA0029"/>
<path d="M148.494 21.5781C148.644 21.4516 148.802 21.3698 148.969 21.3345C149.136 21.2991 149.296 21.2824 149.444 21.2824H152.056C152.264 21.2824 152.442 21.3196 152.592 21.3958C152.743 21.4721 152.869 21.5726 152.973 21.6991C153.077 21.8255 153.16 21.9706 153.223 22.1325C153.286 22.2943 153.348 22.4617 153.405 22.6347L153.769 24.1564C153.941 23.7992 154.221 23.429 154.607 23.0495C154.993 22.6682 155.472 22.3222 156.043 22.0116C156.615 21.7009 157.275 21.4442 158.025 21.2414C158.775 21.0405 159.611 20.9382 160.533 20.9382C161.849 20.9382 163.021 21.1912 164.055 21.6991C165.086 22.2069 165.964 22.8989 166.684 23.775C167.404 24.6512 167.953 25.6761 168.328 26.8481C168.703 28.02 168.89 29.27 168.89 30.6001V41.9621C168.89 42.4011 168.795 42.7341 168.604 42.9592C168.413 43.1843 168.111 43.2977 167.695 43.2977H163.699C163.203 43.2977 162.862 43.214 162.678 43.0466C162.493 42.8792 162.402 42.5518 162.402 42.0663V30.7731C162.402 30.2764 162.289 29.8039 162.064 29.3593C161.84 28.9147 161.543 28.5204 161.173 28.18C160.804 27.8395 160.387 27.5698 159.919 27.3726C159.452 27.1755 158.977 27.0787 158.493 27.0787C158.077 27.0787 157.654 27.1717 157.222 27.3559C156.789 27.5419 156.39 27.7986 156.029 28.1279C155.665 28.4571 155.359 28.8459 155.112 29.2905C154.863 29.7351 154.722 30.2187 154.689 30.7396V42.0142C154.689 42.2114 154.652 42.4067 154.576 42.6039C154.5 42.8011 154.388 42.9517 154.238 43.0541C154.088 43.1471 153.947 43.2103 153.815 43.2457C153.682 43.281 153.529 43.2977 153.357 43.2977H149.448C148.952 43.2977 148.594 43.1768 148.375 42.9331C148.156 42.6895 148.047 42.3658 148.047 41.9621V22.564C148.047 22.3445 148.095 22.1436 148.193 21.9595C148.292 21.7753 148.427 21.6302 148.6 21.5261L148.494 21.5781Z" fill="#EA0029"/>
<path d="M173.025 13.8434C173.025 13.3579 173.129 13.0138 173.337 12.811C173.545 12.6083 173.868 12.5078 174.305 12.5078H178.319C178.723 12.5078 179.048 12.6083 179.296 12.811C179.545 13.0138 179.667 13.3579 179.667 13.8434V17.2253C179.667 17.3648 179.636 17.5136 179.573 17.6754C179.51 17.8373 179.421 17.9935 179.304 18.1442C179.189 18.2949 179.048 18.4195 178.881 18.5162C178.714 18.6148 178.526 18.6632 178.319 18.6632H174.305C173.452 18.6632 173.025 18.1833 173.025 17.2234V13.8434ZM173.025 22.6198C173.025 22.2496 173.129 21.9315 173.337 21.6655C173.545 21.3995 173.868 21.2675 174.305 21.2675H178.267C178.406 21.2675 178.554 21.2991 178.716 21.3623C178.877 21.4256 179.027 21.5186 179.165 21.6395C179.304 21.7604 179.421 21.9036 179.519 22.0655C179.617 22.2273 179.666 22.4115 179.666 22.6198V41.9621C179.666 42.4011 179.545 42.7341 179.302 42.9592C179.059 43.1842 178.714 43.2977 178.265 43.2977H174.304C173.45 43.2977 173.023 42.8531 173.023 41.9621V22.6198H173.025Z" fill="#EA0029"/>
<path d="M202.23 40.6618C201.215 41.5993 200.072 42.3304 198.805 42.8568C197.536 43.3832 196.192 43.6455 194.773 43.6455C193.192 43.6455 191.699 43.3572 190.292 42.7787C188.884 42.2001 187.65 41.4003 186.589 40.3753C185.528 39.3522 184.686 38.1468 184.064 36.7591C183.441 35.3714 183.129 33.8628 183.129 32.2314C183.129 31.2139 183.253 30.228 183.5 29.2737C183.749 28.3194 184.099 27.4265 184.556 26.5931C185.012 25.7598 185.565 24.9952 186.216 24.2939C186.867 23.5945 187.597 22.9955 188.406 22.4989C189.213 22.0022 190.09 21.6134 191.035 21.3362C191.981 21.0591 192.977 20.9196 194.027 20.9196C194.985 20.9196 195.912 21.0479 196.812 21.3009C197.712 21.5557 198.556 21.9148 199.347 22.3761C200.137 22.8393 200.861 23.3936 201.517 24.041C202.174 24.6883 202.74 25.397 203.213 26.1653C203.686 26.9336 204.052 27.7558 204.311 28.6282C204.571 29.5006 204.701 30.401 204.701 31.3255C204.701 31.9263 204.692 32.4193 204.675 32.8006C204.658 33.1819 204.567 33.4852 204.406 33.7121C204.245 33.9372 203.976 34.0934 203.601 34.1809C203.226 34.2683 202.675 34.3111 201.948 34.3111H189.491C189.606 35.0514 189.84 35.6709 190.192 36.1675C190.545 36.6642 190.951 37.0604 191.411 37.3562C191.873 37.652 192.363 37.8622 192.882 37.9887C193.402 38.1152 193.892 38.1803 194.354 38.1803C194.769 38.1803 195.196 38.1375 195.634 38.0501C196.072 37.9626 196.497 37.8473 196.905 37.7022C197.315 37.5571 197.69 37.3897 198.029 37.2C198.369 37.0084 198.643 36.8093 198.851 36.601C199.035 36.4503 199.194 36.3387 199.326 36.2624C199.458 36.188 199.601 36.1489 199.749 36.1489C199.899 36.1489 200.052 36.201 200.207 36.3052C200.363 36.4094 200.54 36.56 200.734 36.7554L202.567 38.8369C202.694 38.9876 202.775 39.1234 202.81 39.2443C202.846 39.3652 202.862 39.4898 202.862 39.6163C202.862 39.847 202.799 40.0479 202.671 40.2153C202.553 40.3865 202.402 40.5334 202.23 40.6618ZM193.907 26.2118C193.458 26.2118 193.022 26.3011 192.6 26.4815C192.179 26.6601 191.784 26.9001 191.415 27.2014C191.046 27.5028 190.714 27.8432 190.42 28.2245C190.127 28.6059 189.886 28.9928 189.702 29.3871H198.543C198.3 28.937 198.039 28.5203 197.757 28.139C197.474 27.7576 197.152 27.4228 196.788 27.1326C196.424 26.8443 196.009 26.6173 195.543 26.4555C195.076 26.2918 194.53 26.2118 193.907 26.2118Z" fill="#EA0029"/>
<path d="M208.767 21.5781C208.918 21.4516 209.075 21.3698 209.242 21.3345C209.409 21.2991 209.569 21.2824 209.717 21.2824H212.33C212.537 21.2824 212.715 21.3196 212.866 21.3958C213.016 21.4721 213.142 21.5726 213.246 21.6991C213.35 21.8255 213.433 21.9706 213.497 22.1325C213.56 22.2943 213.621 22.4617 213.678 22.6347L214.042 24.1564C214.215 23.7992 214.463 23.429 214.786 23.0495C215.109 22.6682 215.519 22.3222 216.014 22.0116C216.51 21.7009 217.101 21.4442 217.788 21.2414C218.474 21.0405 219.278 20.9382 220.202 20.9382C220.929 20.9382 221.588 21.0108 222.183 21.154C222.777 21.2972 223.319 21.5112 223.81 21.7939C224.3 22.0767 224.747 22.4227 225.152 22.8319C225.556 23.2411 225.937 23.7118 226.293 24.2419C226.512 23.8848 226.838 23.5109 227.271 23.1184C227.703 22.7259 228.219 22.3687 228.82 22.045C229.419 21.7214 230.089 21.4572 230.827 21.2489C231.566 21.0405 232.351 20.9382 233.18 20.9382C234.495 20.9382 235.642 21.1912 236.624 21.6991C237.603 22.2069 238.419 22.8989 239.071 23.775C239.722 24.6512 240.21 25.6761 240.533 26.8481C240.856 28.02 241.017 29.27 241.017 30.6001V41.9621C241.017 42.4011 240.922 42.7341 240.731 42.9592C240.54 43.1843 240.238 43.2977 239.822 43.2977H235.826C235.33 43.2977 234.989 43.214 234.805 43.0466C234.62 42.8792 234.529 42.5518 234.529 42.0663V30.6001C234.529 30.1034 234.451 29.6402 234.295 29.2124C234.139 28.7845 233.924 28.4125 233.646 28.0944C233.369 27.7763 233.032 27.527 232.633 27.3485C232.236 27.1699 231.794 27.0787 231.31 27.0787C230.872 27.0787 230.456 27.1662 230.065 27.3392C229.673 27.5121 229.326 27.7521 229.028 28.059C228.727 28.366 228.488 28.7362 228.31 29.1696C228.132 29.603 228.041 30.0811 228.041 30.6001V41.9621C228.041 42.4011 227.946 42.7341 227.755 42.9592C227.564 43.1843 227.261 43.2977 226.846 43.2977H226.482H226.343H222.848C222.352 43.2977 222.011 43.214 221.827 43.0466C221.642 42.8792 221.551 42.5518 221.551 42.0663V30.6001C221.551 30.1034 221.478 29.6402 221.334 29.2124C221.189 28.7845 220.981 28.4125 220.71 28.0944C220.439 27.7763 220.111 27.527 219.723 27.3485C219.337 27.1699 218.901 27.0787 218.417 27.0787C218.001 27.0787 217.595 27.1624 217.198 27.3299C216.801 27.4973 216.443 27.7354 216.126 28.0404C215.808 28.3474 215.543 28.7138 215.33 29.1417C215.116 29.5695 214.992 30.0439 214.959 30.5647V42.0123C214.959 42.2095 214.921 42.4048 214.845 42.602C214.769 42.7992 214.658 42.9499 214.508 43.0522C214.357 43.1452 214.216 43.2084 214.085 43.2438C213.951 43.2791 213.799 43.2959 213.626 43.2959H209.717C209.222 43.2959 208.864 43.175 208.645 42.9313C208.426 42.6876 208.316 42.3639 208.316 41.9603V22.564C208.316 22.3445 208.365 22.1436 208.463 21.9595C208.561 21.7753 208.697 21.6302 208.869 21.5261L208.767 21.5781Z" fill="#EA0029"/>
<path d="M245.637 21.4758C245.787 21.3493 245.943 21.2674 246.104 21.2321C246.266 21.1967 246.421 21.18 246.572 21.18H249.184C249.403 21.18 249.585 21.2153 249.73 21.2842C249.874 21.353 249.991 21.4497 250.084 21.5706C250.177 21.6915 250.255 21.831 250.318 21.9873C250.381 22.1436 250.442 22.3147 250.5 22.4989L251.227 24.5972C251.55 24.1805 251.876 23.7563 252.205 23.3229C252.533 22.8895 252.923 22.497 253.372 22.1436C253.821 21.7901 254.359 21.4999 254.98 21.2674C255.604 21.0367 256.364 20.9196 257.264 20.9196C258.845 20.9196 260.301 21.2116 261.634 21.7957C262.966 22.3798 264.114 23.1834 265.077 24.2065C266.04 25.2296 266.793 26.4332 267.335 27.8153C267.877 29.1974 268.148 30.6911 268.148 32.3002C268.148 33.8963 267.877 35.3881 267.335 36.7758C266.793 38.1635 266.04 39.3689 265.077 40.392C264.114 41.4151 262.966 42.2225 261.634 42.8122C260.301 43.4018 258.845 43.6976 257.264 43.6976C256.515 43.6976 255.869 43.6083 255.327 43.4279C254.785 43.2493 254.303 43.0149 253.882 42.7247C253.461 42.4364 253.09 42.1183 252.767 41.7704C252.444 41.4226 252.127 41.0766 251.815 40.7306V48.8131C251.815 49.161 251.711 49.4549 251.503 49.6986C251.295 49.9423 250.973 50.0632 250.535 50.0632H246.574C246.434 50.0632 246.286 50.0334 246.125 49.9758C245.963 49.9181 245.813 49.8362 245.676 49.7321C245.538 49.6279 245.421 49.4977 245.331 49.3414C245.238 49.1852 245.191 49.0085 245.191 48.8131V22.4654C245.191 22.2347 245.234 22.0431 245.321 21.8924C245.403 21.7418 245.509 21.6041 245.637 21.4758ZM261.795 32.3002C261.795 31.5599 261.674 30.8586 261.431 30.1926C261.188 29.5285 260.849 28.9463 260.411 28.4496C259.973 27.9529 259.448 27.5586 258.836 27.2703C258.223 26.9819 257.55 26.8368 256.811 26.8368C256.084 26.8368 255.396 26.9726 254.745 27.2442C254.093 27.5158 253.522 27.886 253.032 28.3547C252.542 28.8235 252.143 29.376 251.839 30.0122C251.533 30.6484 251.364 31.3255 251.329 32.0416V32.3021C251.329 33.0647 251.474 33.7828 251.761 34.4525C252.049 35.124 252.442 35.7044 252.938 36.1955C253.433 36.6865 254.015 37.0772 254.685 37.3655C255.353 37.6538 256.064 37.7989 256.813 37.7989C257.552 37.7989 258.225 37.6538 258.838 37.3655C259.448 37.0772 259.973 36.6865 260.413 36.1955C260.851 35.7044 261.192 35.1221 261.433 34.4525C261.674 33.7809 261.795 33.0629 261.795 32.3002Z" fill="#EA0029"/>
<path d="M271.605 22.5509C271.605 22.3314 271.646 22.1398 271.726 21.978C271.806 21.8162 271.913 21.6841 272.047 21.5799C272.179 21.4758 272.329 21.3976 272.496 21.3455C272.663 21.2935 272.828 21.2674 272.99 21.2674H275.602C275.889 21.2674 276.121 21.3548 276.294 21.5278C276.466 21.7008 276.615 21.9203 276.735 22.1863C276.856 22.4524 276.964 22.7481 277.056 23.0718C277.149 23.3955 277.259 23.708 277.385 24.0093C277.73 23.628 278.073 23.2522 278.415 22.8821C278.754 22.5119 279.121 22.1826 279.513 21.8924C279.904 21.6041 280.335 21.3697 280.802 21.1893C281.27 21.0107 281.802 20.9196 282.404 20.9196C283.027 20.9196 283.584 20.9661 284.073 21.0591C284.563 21.1521 285.027 21.2879 285.467 21.4665C285.905 21.645 286.341 21.8738 286.773 22.151C287.205 22.4282 287.675 22.7518 288.183 23.122C288.678 23.4104 288.927 23.7526 288.927 24.1451C288.927 24.4 288.829 24.6939 288.632 25.0306L287.057 27.7186C286.745 28.1687 286.359 28.3957 285.897 28.3957C285.667 28.3957 285.407 28.3324 285.118 28.2041C284.623 27.7186 284.118 27.3577 283.604 27.1196C283.09 26.8833 282.506 26.7643 281.849 26.7643C281.4 26.7643 281.005 26.8275 280.663 26.9559C280.324 27.0842 280.014 27.2628 279.737 27.4935C279.461 27.726 279.201 28.0032 278.958 28.3268C278.715 28.6505 278.474 29.0095 278.231 29.402V41.9602C278.231 42.3992 278.123 42.7322 277.91 42.9573C277.697 43.1823 277.342 43.2958 276.847 43.2958H272.954C272.054 43.2958 271.605 42.8512 271.605 41.9602V22.5509Z" fill="#EA0029"/>
<path d="M309.409 40.6618C308.395 41.5993 307.252 42.3304 305.984 42.8568C304.715 43.3832 303.372 43.6455 301.953 43.6455C300.372 43.6455 298.878 43.3572 297.472 42.7787C296.064 42.2001 294.83 41.4003 293.769 40.3753C292.708 39.3522 291.865 38.1468 291.244 36.7591C290.62 35.3714 290.309 33.8628 290.309 32.2314C290.309 31.2139 290.433 30.228 290.68 29.2737C290.928 28.3194 291.279 27.4265 291.735 26.5931C292.192 25.7598 292.745 24.9952 293.396 24.2939C294.047 23.5945 294.776 22.9955 295.585 22.4989C296.392 22.0022 297.27 21.6134 298.214 21.3362C299.16 21.0591 300.157 20.9196 301.207 20.9196C302.164 20.9196 303.092 21.0479 303.992 21.3009C304.892 21.5557 305.736 21.9148 306.526 22.3761C307.317 22.8393 308.04 23.3936 308.697 24.041C309.354 24.6883 309.92 25.397 310.393 26.1653C310.866 26.9336 311.231 27.7558 311.491 28.6282C311.751 29.5006 311.881 30.401 311.881 31.3255C311.881 31.9263 311.871 32.4193 311.855 32.8006C311.838 33.1819 311.747 33.4852 311.586 33.7121C311.424 33.9372 311.155 34.0934 310.781 34.1809C310.406 34.2683 309.855 34.3111 309.127 34.3111H296.671C296.786 35.0514 297.019 35.6709 297.372 36.1675C297.724 36.6642 298.131 37.0604 298.591 37.3562C299.053 37.652 299.543 37.8622 300.062 37.9887C300.582 38.1152 301.071 38.1803 301.533 38.1803C301.949 38.1803 302.376 38.1375 302.814 38.0501C303.252 37.9626 303.676 37.8473 304.085 37.7022C304.495 37.5571 304.869 37.3897 305.209 37.2C305.548 37.0084 305.823 36.8093 306.031 36.601C306.215 36.4503 306.374 36.3387 306.506 36.2624C306.638 36.188 306.78 36.1489 306.929 36.1489C307.079 36.1489 307.231 36.201 307.387 36.3052C307.543 36.4094 307.719 36.56 307.914 36.7554L309.747 38.8369C309.873 38.9876 309.955 39.1234 309.99 39.2443C310.025 39.3652 310.042 39.4898 310.042 39.6163C310.042 39.847 309.979 40.0479 309.851 40.2153C309.732 40.3865 309.582 40.5334 309.409 40.6618ZM301.088 26.2118C300.639 26.2118 300.203 26.3011 299.782 26.4815C299.361 26.6601 298.966 26.9001 298.596 27.2014C298.227 27.5028 297.895 27.8432 297.602 28.2245C297.309 28.6059 297.068 28.9928 296.884 29.3871H305.725C305.482 28.937 305.22 28.5203 304.938 28.139C304.656 27.7576 304.333 27.4228 303.97 27.1326C303.606 26.8443 303.19 26.6173 302.725 26.4555C302.255 26.2918 301.712 26.2118 301.088 26.2118Z" fill="#EA0029"/>
<path d="M318.785 36.4466C319.097 36.7591 319.435 37.0214 319.798 37.2353C320.162 37.4492 320.511 37.6222 320.845 37.7561C321.179 37.8882 321.474 37.9849 321.728 38.0426C321.982 38.1003 322.155 38.13 322.248 38.13C322.466 38.13 322.747 38.1207 323.086 38.104C323.426 38.0873 323.752 38.0352 324.064 37.9477C324.376 37.8603 324.643 37.7189 324.869 37.5218C325.094 37.3246 325.207 37.0474 325.207 36.6884C325.207 36.3647 325.144 36.108 325.016 35.9164C324.89 35.7248 324.704 35.563 324.463 35.4309C324.22 35.2988 323.923 35.1798 323.572 35.0756C323.22 34.9714 322.825 34.8505 322.387 34.711C321.003 34.3408 319.862 33.8962 318.962 33.3754C318.062 32.8545 317.349 32.2742 316.824 31.6324C316.299 30.9906 315.934 30.3005 315.726 29.5601C315.518 28.8198 315.414 28.0404 315.414 27.2182C315.414 26.2583 315.605 25.3859 315.986 24.599C316.366 23.8121 316.908 23.1388 317.613 22.5788C318.316 22.0189 319.158 21.5836 320.138 21.2786C321.118 20.9716 322.209 20.8191 323.407 20.8191C324.134 20.8191 324.813 20.8805 325.448 21.0014C326.083 21.1223 326.687 21.3139 327.264 21.5743C327.841 21.8348 328.404 22.1696 328.951 22.5807C329.498 22.9918 330.044 23.4792 330.586 24.0465C330.782 24.2772 330.882 24.4948 330.888 24.6976C330.893 24.9004 330.764 25.1161 330.498 25.3487C330.049 25.7188 329.619 26.0834 329.209 26.4425C328.799 26.8015 328.376 27.1995 327.938 27.6386C327.799 27.7539 327.661 27.8264 327.522 27.8562C327.383 27.886 327.251 27.8822 327.125 27.8469C326.999 27.8116 326.877 27.7539 326.762 27.6739C326.647 27.5939 326.543 27.4953 326.45 27.38C326.045 26.9298 325.585 26.6248 325.066 26.4685C324.546 26.3122 324.062 26.2341 323.613 26.2341C323.047 26.2341 322.598 26.3327 322.264 26.528C321.93 26.7252 321.774 27.0247 321.797 27.4302C321.819 27.7316 321.932 27.9659 322.134 28.1334C322.337 28.3008 322.583 28.4366 322.878 28.5407C323.173 28.6449 323.483 28.7286 323.813 28.7919C324.142 28.8551 324.444 28.9277 324.723 29.0095C325.76 29.3444 326.712 29.7089 327.578 30.1033C328.443 30.4958 329.192 30.9795 329.827 31.5524C330.461 32.1253 330.955 32.8099 331.305 33.6079C331.658 34.4059 331.832 35.377 331.832 36.5228C331.832 37.6687 331.604 38.6918 331.15 39.594C330.693 40.4962 330.068 41.2533 329.272 41.8653C328.476 42.4792 327.533 42.9461 326.442 43.2697C325.352 43.5934 324.179 43.7553 322.921 43.7553C322.205 43.7553 321.479 43.692 320.741 43.5637C320.003 43.4372 319.288 43.2307 318.596 42.9479C317.904 42.6652 317.247 42.3006 316.624 41.856C316.001 41.4114 315.448 40.8701 314.963 40.2339C314.837 40.0721 314.741 39.9009 314.678 39.7224C314.615 39.5438 314.585 39.3671 314.591 39.1941C314.596 39.0211 314.631 38.8611 314.694 38.7179C314.757 38.5728 314.86 38.4481 314.997 38.3458L317.229 36.108C317.505 35.8773 317.75 35.7955 317.964 35.8662C318.177 35.9257 318.451 36.1229 318.785 36.4466Z" fill="#EA0029"/>
<path d="M358.147 42.0141C358.147 42.2113 358.112 42.3992 358.043 42.5778C357.974 42.7563 357.857 42.8996 357.696 43.0038C357.57 43.1302 357.42 43.2121 357.247 43.2474C357.074 43.2828 356.924 43.2995 356.798 43.2995H353.39C353.147 43.2995 352.952 43.2679 352.802 43.2047C352.651 43.1414 352.531 43.0521 352.438 42.9349C352.345 42.8196 352.267 42.6782 352.204 42.5089C352.141 42.3415 352.074 42.1592 352.006 41.962L351.781 41.1808C351.469 41.4933 351.115 41.8002 350.718 42.0997C350.319 42.4011 349.881 42.6689 349.403 42.907C348.924 43.1433 348.41 43.3349 347.863 43.48C347.315 43.6251 346.748 43.6976 346.158 43.6976C345.107 43.6976 344.102 43.5655 343.139 43.2995C342.176 43.0335 341.276 42.6559 340.439 42.1629C339.603 41.6719 338.844 41.0822 338.165 40.3939C337.484 39.7056 336.899 38.9392 336.41 38.0947C335.92 37.2502 335.541 36.3405 335.276 35.3621C335.011 34.3855 334.879 33.3642 334.879 32.3002C334.879 30.693 335.172 29.1974 335.762 27.8153C336.35 26.4332 337.152 25.2315 338.167 24.2065C339.181 23.1834 340.374 22.3798 341.747 21.7957C343.12 21.2116 344.59 20.9196 346.159 20.9196C346.874 20.9196 347.54 21.0014 348.158 21.1632C348.776 21.3251 349.34 21.5446 349.853 21.8217C350.367 22.0989 350.831 22.4319 351.247 22.8188C351.662 23.2057 352.026 23.6261 352.338 24.0763L352.839 22.497C352.954 22.2087 353.048 21.9743 353.124 21.7938C353.199 21.6153 353.28 21.4813 353.367 21.3939C353.455 21.3065 353.56 21.2488 353.688 21.2209C353.815 21.193 353.995 21.1781 354.225 21.1781H356.802C356.928 21.1781 357.078 21.1949 357.251 21.2302C357.423 21.2656 357.574 21.3455 357.7 21.4739C357.861 21.6004 357.976 21.7455 358.047 21.9073C358.115 22.0692 358.151 22.2552 358.151 22.4617V42.0141H358.147ZM341.105 32.3002C341.105 33.0629 341.224 33.7772 341.46 34.4431C341.695 35.1091 342.033 35.6839 342.473 36.1694C342.911 36.6549 343.44 37.04 344.055 37.3227C344.671 37.6055 345.356 37.7487 346.106 37.7487C346.877 37.7487 347.596 37.6073 348.26 37.3227C348.922 37.04 349.499 36.6549 349.991 36.1694C350.481 35.6839 350.865 35.1091 351.141 34.4431C351.418 33.7791 351.557 33.0647 351.557 32.3002C351.557 31.5599 351.418 30.8548 351.141 30.1833C350.865 29.5136 350.481 28.9221 349.991 28.4143C349.501 27.9064 348.924 27.5028 348.26 27.2089C347.596 26.915 346.877 26.7661 346.106 26.7661C345.356 26.7661 344.671 26.9131 344.055 27.2089C343.438 27.5028 342.911 27.9064 342.473 28.4143C342.035 28.924 341.697 29.5136 341.46 30.1833C341.224 30.8548 341.105 31.5599 341.105 32.3002Z" fill="#EA0029"/>
<path d="M362.297 22.5509C362.297 22.3314 362.338 22.1398 362.417 21.978C362.497 21.8162 362.605 21.6841 362.738 21.5799C362.87 21.4758 363.02 21.3976 363.187 21.3455C363.354 21.2935 363.52 21.2674 363.681 21.2674H366.293C366.581 21.2674 366.813 21.3548 366.985 21.5278C367.158 21.7008 367.306 21.9203 367.427 22.1863C367.548 22.4524 367.655 22.7481 367.748 23.0718C367.841 23.3955 367.95 23.708 368.076 24.0093C368.423 23.628 368.765 23.2522 369.106 22.8821C369.446 22.5119 369.813 22.1826 370.204 21.8924C370.596 21.6041 371.026 21.3697 371.494 21.1893C371.961 21.0088 372.494 20.9196 373.095 20.9196C373.718 20.9196 374.275 20.9661 374.765 21.0591C375.255 21.1521 375.718 21.2879 376.158 21.4665C376.596 21.645 377.032 21.8738 377.464 22.151C377.897 22.4282 378.366 22.7518 378.874 23.122C379.37 23.4104 379.618 23.7526 379.618 24.1451C379.618 24.4 379.52 24.6939 379.325 25.0306L377.75 27.7186C377.438 28.1687 377.052 28.3957 376.591 28.3957C376.36 28.3957 376.101 28.3324 375.811 28.2041C375.316 27.7186 374.811 27.3577 374.297 27.1196C373.783 26.8833 373.199 26.7643 372.542 26.7643C372.093 26.7643 371.698 26.8275 371.357 26.9559C371.017 27.0842 370.707 27.2628 370.431 27.4935C370.154 27.726 369.895 28.0032 369.651 28.3268C369.408 28.6505 369.167 29.0095 368.924 29.402V41.9602C368.924 42.3992 368.817 42.7322 368.603 42.9573C368.39 43.1823 368.035 43.2958 367.54 43.2958H363.648C362.748 43.2958 362.299 42.8512 362.299 41.9602V22.5509H362.297Z" fill="#EA0029"/>
<path d="M382.193 13.8434C382.193 13.3579 382.297 13.0138 382.505 12.811C382.713 12.6083 383.036 12.5078 383.473 12.5078H387.487C387.891 12.5078 388.216 12.6083 388.464 12.811C388.713 13.0138 388.835 13.3579 388.835 13.8434V17.2253C388.835 17.3648 388.804 17.5136 388.741 17.6754C388.678 17.8373 388.589 17.9935 388.472 18.1442C388.357 18.2949 388.216 18.4195 388.049 18.5162C387.882 18.6148 387.694 18.6632 387.487 18.6632H383.473C382.62 18.6632 382.193 18.1833 382.193 17.2234V13.8434ZM382.193 22.6198C382.193 22.2496 382.297 21.9315 382.505 21.6655C382.713 21.3995 383.036 21.2675 383.473 21.2675H387.435C387.574 21.2675 387.722 21.2991 387.884 21.3623C388.045 21.4256 388.195 21.5186 388.333 21.6395C388.472 21.7604 388.589 21.9036 388.687 22.0655C388.785 22.2273 388.834 22.4115 388.834 22.6198V41.9621C388.834 42.4011 388.713 42.7341 388.47 42.9592C388.227 43.1842 387.882 43.2977 387.433 43.2977H383.472C382.618 43.2977 382.191 42.8531 382.191 41.9621V22.6198H382.193Z" fill="#EA0029"/>
<path d="M415.6 42.0141C415.6 42.2113 415.565 42.3992 415.496 42.5778C415.427 42.7563 415.311 42.8996 415.149 43.0038C415.023 43.1302 414.873 43.2121 414.7 43.2474C414.528 43.2828 414.377 43.2995 414.251 43.2995H410.843C410.6 43.2995 410.405 43.2679 410.255 43.2047C410.104 43.1414 409.984 43.0521 409.891 42.9349C409.798 42.8196 409.72 42.6782 409.657 42.5089C409.594 42.3415 409.527 42.1592 409.459 41.962L409.234 41.1808C408.923 41.4933 408.568 41.8002 408.171 42.0997C407.772 42.4011 407.334 42.6689 406.856 42.907C406.377 43.1433 405.863 43.3349 405.316 43.48C404.768 43.6251 404.201 43.6976 403.611 43.6976C402.561 43.6976 401.555 43.5655 400.592 43.2995C399.629 43.0335 398.729 42.6559 397.893 42.1629C397.056 41.6719 396.297 41.0822 395.618 40.3939C394.937 39.7056 394.353 38.9392 393.863 38.0947C393.373 37.2502 392.994 36.3405 392.729 35.3621C392.464 34.3855 392.332 33.3642 392.332 32.3002C392.332 30.693 392.627 29.1974 393.215 27.8153C393.803 26.4332 394.605 25.2315 395.62 24.2065C396.635 23.1834 397.828 22.3798 399.201 21.7957C400.573 21.2116 402.043 20.9196 403.613 20.9196C404.327 20.9196 404.993 21.0014 405.611 21.1632C406.229 21.3251 406.793 21.5446 407.307 21.8217C407.821 22.0989 408.284 22.4319 408.7 22.8188C409.116 23.2057 409.479 23.6261 409.791 24.0763L410.292 22.497C410.407 22.2087 410.501 21.9743 410.578 21.7938C410.652 21.6153 410.733 21.4813 410.821 21.3939C410.908 21.3065 411.014 21.2488 411.142 21.2209C411.268 21.193 411.448 21.1781 411.678 21.1781H414.255C414.381 21.1781 414.531 21.1949 414.704 21.2302C414.876 21.2656 415.027 21.3455 415.153 21.4739C415.314 21.6004 415.429 21.7455 415.5 21.9073C415.568 22.0692 415.604 22.2552 415.604 22.4617V42.0141H415.6ZM398.559 32.3002C398.559 33.0629 398.677 33.7772 398.913 34.4431C399.149 35.1091 399.486 35.6839 399.926 36.1694C400.364 36.6549 400.893 37.04 401.509 37.3227C402.125 37.6055 402.809 37.7487 403.559 37.7487C404.331 37.7487 405.049 37.6073 405.713 37.3227C406.375 37.04 406.952 36.6549 407.444 36.1694C407.934 35.6839 408.318 35.1091 408.594 34.4431C408.871 33.7791 409.01 33.0647 409.01 32.3002C409.01 31.5599 408.871 30.8548 408.594 30.1833C408.318 29.5136 407.934 28.9221 407.444 28.4143C406.954 27.9064 406.377 27.5028 405.713 27.2089C405.049 26.915 404.331 26.7661 403.559 26.7661C402.809 26.7661 402.125 26.9131 401.509 27.2089C400.891 27.5028 400.364 27.9064 399.926 28.4143C399.488 28.924 399.15 29.5136 398.913 30.1833C398.677 30.8548 398.559 31.5599 398.559 32.3002Z" fill="#EA0029"/>
<path d="M419.754 16.0459C419.754 15.6757 419.847 15.3632 420.03 15.1084C420.214 14.8535 420.531 14.7271 420.982 14.7271H425.222C425.337 14.7271 425.457 14.7587 425.585 14.8219C425.711 14.8852 425.83 14.9763 425.94 15.0916C426.049 15.207 426.142 15.3465 426.216 15.5083C426.29 15.6702 426.329 15.8487 426.329 16.0459V41.9621C426.329 42.4011 426.205 42.7341 425.958 42.9592C425.71 43.1843 425.39 43.2977 424.997 43.2977H420.984C420.535 43.2977 420.218 43.1843 420.032 42.9592C419.847 42.7341 419.756 42.4011 419.756 41.9621V16.0459H419.754Z" fill="#EA0029"/>
</svg>
